<svg xmlns="http://www.w3.org/2000/svg" id="SvgjsSvg101603" width="4096" height="1963.1260195810062" version="1.1" xmlns:xlink="http://www.w3.org/1999/xlink" xmlns:svgjs="http://svgjs.com/svgjs"><defs id="SvgjsDefs101604"></defs><g id="SvgjsG101605" transform="translate(328, 328) scale(34.4)" opacity="1"><defs id="SvgjsDefs25958"></defs><g id="SvgjsG25959" transform="scale(0.21862367681704584)" opacity="1"><g id="SvgjsG25960" class="l9XJF7YRL" transform="translate(-1.2378744343931518, -1.6436854868220288) scale(1.7709219376153866)" light-content="false" non-strokable="false" fill="#ff1434"><path d="M47 1.732l37.301 21.536a6 6 0 0 1 3 5.196v43.072a6 6 0 0 1-3 5.196L47 98.268a6 6 0 0 1-6 0L3.699 76.732a6 6 0 0 1-3-5.196V28.464a6 6 0 0 1 3-5.196L41 1.732a6 6 0 0 1 6 0z"></path></g><g id="SvgjsG25961" class="lwxgPBT-ha" transform="translate(14.478845908200622, 25.87923635269603) scale(1.222099091473257)" light-content="true" non-strokable="false" fill="#f2f2f2" fill-rule="evenodd" clip-rule="evenodd"><path d="M50.99 23.46a3.33 3.33 0 0 1-.39 1.48l-.06.1c-.26.45-.64.85-1.11 1.14l-.09.06c-.5.29-1.08.44-1.64.44a3.08 3.08 0 0 1-1.6-.41c-.4-.2-.92.02-.92.5 0 .45-.1.91-.29 1.32 1.9 2.34 2.78 5.42 2.78 8.66v2.84h2.18c5.1 0 8.57.86 10.95 3.25 2.35 2.37 3.28 5.91 3.28 11.24v5.93c0 1.49-1.21 2.7-2.7 2.7-1.5 0-2.7-1.21-2.7-2.7v-5.93c0-3.85-.48-6.22-1.7-7.44-1.2-1.21-3.5-1.65-7.13-1.65h-4.88c-1.49 0-2.7-1.21-2.7-2.7v-5.54c0-2.19-.56-4.18-1.76-5.5-.99-1.08-2.52-1.76-4.67-1.76h-8.1c-1.43 2.21-2.54 4.7-3.31 7.38-.82 2.84-1.24 5.88-1.24 9.05v.73L16.6 57.69c-.36.6-.51 1.18-.51 1.7 0 .45.12.87.33 1.22.21.36.52.67.87.88.32.19.69.3 1.06.3h7.92c1.84 0 3.46.96 4.59 2.51.93 1.3 1.52 3.04 1.52 4.91 0 1.49-1.21 2.7-2.7 2.7h-6.49v.04c0 2.18.92 4.2 2.39 5.68 1.46 1.46 3.46 2.38 5.67 2.38h10.02v11.06h25.47V68.81c0-1.49 1.2-2.7 2.7-2.7 1.48 0 2.7 1.21 2.7 2.7v27.66H35.87V85.41h-4.62c-3.69 0-7.04-1.53-9.48-3.97-2.46-2.45-3.98-5.83-3.98-9.49v-4.79a7.429 7.429 0 0 1-3.26-1.06 7.79 7.79 0 0 1-2.75-2.75 7.713 7.713 0 0 1-1.09-3.96c0-1.43.39-2.95 1.29-4.47l5.82-9.74c.06-3.4.55-6.69 1.44-9.78.61-2.13 1.41-4.16 2.39-6.08-1.5-.28-2.7-.9-3.64-1.81-1.32-1.28-1.97-2.99-2.11-5.04l-.25-3.65a2.696 2.696 0 0 1 5.38-.36l.25 3.65c.05.73.2 1.27.48 1.54.26.25.74.4 1.48.43v-2.24c0-5.1 1.65-8.81 4.21-11.36 3.05-3.03 7.28-4.3 11.49-4.3 1.49 0 2.7 1.21 2.7 2.7 0 1.49-1.21 2.7-2.7 2.7-2.91 0-5.77.8-7.69 2.72-1.59 1.58-2.61 4.02-2.61 7.54v2.25h7.22c2.73 0 4.97.7 6.75 1.89.06-.26.16-.51.29-.74l.05-.1c.6-1.02 1.68-1.63 2.85-1.64.56-.01 1.11.13 1.6.41.44.22.92-.05.92-.55 0-.51.14-1.02.39-1.48l.05-.1c.31-.52.7-.88 1.2-1.19.51-.29 1.08-.44 1.65-.45.58 0 1.16.15 1.65.45a1.339 1.339 0 1 1-1.39 2.29c-.37-.22-.86.14-.86.58zm-3.6-9.63c-.39 1.43-1.87 2.29-3.3 1.9a2.688 2.688 0 0 1-1.91-3.3c.87-3.25 2.97-5.61 5.64-7.09 2.18-1.21 4.75-1.8 7.29-1.8 2.55 0 5.11.61 7.28 1.8 2.1 1.16 3.86 2.86 4.94 5.09h3.34l.26.01c3.11.07 5.86 1.35 7.82 3.46 1.94 2.07 3.1 4.94 3.1 8.24l-.01.26V24c1.19.54 2.25 1.26 3.16 2.14 2.19 2.11 3.45 5.06 3.45 8.52v4.13c0 1.49-1.2 2.7-2.7 2.7-1.48 0-2.7-1.21-2.7-2.7v-4.13c0-1.94-.65-3.55-1.78-4.64-1.16-1.12-2.88-1.77-4.95-1.77h-1.8c-1.49 0-2.7-1.21-2.7-2.7 0-1.49 1.21-2.7 2.7-2.7h1.95c0-.24-.01-.48-.02-.71 0-1.88-.62-3.47-1.64-4.57-.98-1.06-2.37-1.7-3.94-1.75l-5.4.01c-1.3 0-2.38-.91-2.64-2.12-.48-1.64-1.6-2.85-3.03-3.64-1.38-.76-3.03-1.15-4.69-1.15-1.66 0-3.31.37-4.68 1.13-1.44.8-2.58 2.06-3.04 3.78zm33.22 32.35c2.36.39 4.2 1.31 5.61 2.68 1.92 1.86 2.87 4.42 3.08 7.5l.01 6.9c0 1.49-1.21 2.7-2.7 2.7-1.49 0-2.7-1.21-2.7-2.7v-6.68c-.13-1.7-.58-3.03-1.44-3.86-.89-.86-2.36-1.34-4.56-1.34-1.49 0-2.7-1.21-2.7-2.7v-8.19c-.07-.78-.25-1.37-.59-1.69-.36-.35-1.04-.54-2.12-.54-1.5 0-2.7-1.21-2.7-2.7 0-1.49 1.2-2.7 2.7-2.7 2.58 0 4.5.74 5.88 2.08 1.38 1.35 2.07 3.16 2.22 5.33l.01 5.91zM69.44 61.85c-1.5 0-2.7-1.21-2.7-2.7 0-1.49 1.2-2.7 2.7-2.7 3.69 0 6.4 1.03 8.31 2.88 1.91 1.86 2.86 4.42 3.08 7.5l.01 6.9c0 1.49-1.21 2.7-2.7 2.7-1.49 0-2.7-1.21-2.7-2.7v-6.68c-.14-1.7-.59-3.03-1.45-3.86-.89-.86-2.36-1.34-4.55-1.34z" fill-rule="nonzero"></path></g><g id="SvgjsG25962" class="text" transform="translate(311.247003013257, 111.12051987743125) scale(1)" light-content="false" fill="#ff1434"><path d="M-109.8 -11.11C-115.71 -9.61 -120.93 -8.87 -125.47 -8.87C-128.93 -8.87 -131.59 -9.1 -133.44 -9.58L-133.44 -17.11C-126.1 -17.11 -120.57 -17.51 -116.87 -18.31C-113.17 -19.12 -110.59 -20.54 -109.12 -22.57C-107.66 -24.6 -106.93 -27.61 -106.93 -31.61C-106.93 -35.37 -107.51 -38.27 -108.68 -40.3C-109.84 -42.33 -111.81 -43.76 -114.59 -44.6C-117.36 -45.44 -121.32 -45.85 -126.45 -45.85C-131.65 -45.85 -135.78 -45.08 -138.86 -43.52C-141.93 -41.97 -144.17 -39.49 -145.57 -36.09C-146.98 -32.69 -147.68 -28.12 -147.68 -22.39C-147.68 -16.54 -147.01 -11.91 -145.66 -8.51C-144.32 -5.1 -142.17 -2.66 -139.22 -1.16C-136.26 0.33 -132.25 1.07 -127.17 1.07C-119.89 1.07 -113.53 0.12 -108.09 -1.79ZM-132.01 -34.88C-131.05 -35.51 -129.26 -35.82 -126.63 -35.82L-118.93 -35.82L-118.93 -28.93C-118.93 -27.2 -119.42 -26.02 -120.41 -25.39C-121.39 -24.76 -123.2 -24.45 -125.83 -24.45L-133.44 -24.45L-133.44 -31.43C-133.44 -33.11 -132.96 -34.26 -132.01 -34.88Z M-96.45 0ZM-82.39 -45.14L-95.74 -43.35L-95.74 0L-82.39 0ZM-94.89 -52.12C-93.84 -51.11 -91.86 -50.6 -88.93 -50.6C-86.06 -50.6 -84.12 -51.11 -83.11 -52.12C-82.09 -53.14 -81.59 -55.08 -81.59 -57.94C-81.59 -60.87 -82.11 -62.85 -83.15 -63.9C-84.2 -64.94 -86.12 -65.47 -88.93 -65.47C-91.86 -65.47 -93.84 -64.94 -94.89 -63.9C-95.93 -62.85 -96.45 -60.87 -96.45 -57.94C-96.45 -55.08 -95.93 -53.14 -94.89 -52.12Z M-69.76 -44.78L-69.76 0L-56.42 0L-56.42 -30.99C-56.42 -32.48 -56.02 -33.51 -55.21 -34.08C-54.41 -34.64 -52.96 -34.93 -50.87 -34.93L-42.81 -34.93L-42.81 0L-29.46 0L-29.46 -36.99C-29.46 -39.85 -30.6 -42.05 -32.87 -43.57C-35.14 -45.09 -38.36 -45.85 -42.54 -45.85C-49.29 -45.85 -55.05 -44 -59.82 -40.3L-63.32 -44.78Z M-15.27 -42.67C-18.22 -40.38 -19.7 -36.78 -19.7 -31.88C-19.7 -28.36 -19.11 -25.69 -17.91 -23.87C-16.72 -22.05 -14.51 -20.63 -11.28 -19.61C-8.06 -18.6 -3.04 -17.67 3.76 -16.84L3.76 -9.67C0.9 -9.02 -1.76 -8.69 -4.21 -8.69C-9.46 -8.69 -14.3 -9.61 -18.72 -11.46L-20.51 -1.43C-14.84 0.42 -8.87 1.34 -2.6 1.34C4.69 1.34 9.94 0.21 13.16 -2.06C16.39 -4.33 18 -8.06 18 -13.25C18 -16.48 17.33 -19.03 15.99 -20.91C14.64 -22.79 12.31 -24.28 9 -25.39C5.69 -26.49 0.87 -27.43 -5.46 -28.21L-5.46 -35.2C-2.96 -35.79 0 -36.09 3.4 -36.09C7.28 -36.09 10.87 -35.64 14.15 -34.75L15.76 -44.15C10.57 -45.46 4.9 -46.12 -1.25 -46.12C-7.64 -46.12 -12.31 -44.97 -15.27 -42.67Z M43.08 -36L50.15 -36L50.15 -44.78L43.08 -44.78L43.08 -56.51L29.73 -53.2L29.73 -44.78L24.36 -44.78L24.36 -36L29.73 -36L29.73 -7.07C29.73 -4.27 30.46 -2.21 31.93 -0.9C33.39 0.42 35.67 1.07 38.78 1.07C41.29 1.07 44.45 0.69 48.27 -0.09L48.9 -9.13C46.87 -9.19 44.93 -9.37 43.08 -9.67Z M58.53 -13.3C57.48 -12.13 56.96 -10.09 56.96 -7.16C56.96 -4.3 57.48 -2.3 58.53 -1.16C59.57 -0.03 61.64 0.54 64.75 0.54C67.79 0.54 69.84 -0.03 70.88 -1.16C71.93 -2.3 72.45 -4.3 72.45 -7.16C72.45 -10.09 71.93 -12.13 70.88 -13.3C69.84 -14.46 67.79 -15.05 64.75 -15.05C61.64 -15.05 59.57 -14.46 58.53 -13.3Z M115.53 -42.58C112.66 -44.76 107.95 -45.85 101.38 -45.85C97.86 -45.85 94.38 -45.61 90.94 -45.14C87.51 -44.66 84.39 -43.94 81.59 -42.99L83.29 -33.67C89.08 -35.17 94.54 -35.91 99.68 -35.91C102.72 -35.91 104.99 -35.67 106.48 -35.2L106.48 -27.67L104.51 -27.67C97.59 -27.67 92.39 -27.27 88.93 -26.46C85.47 -25.66 83.05 -24.24 81.68 -22.21C80.3 -20.18 79.62 -17.17 79.62 -13.16C79.62 -8.15 80.77 -4.52 83.06 -2.28C85.36 -0.04 89.11 1.07 94.3 1.07C100.27 1.07 105.47 -0.78 109.89 -4.48L113.38 0L119.83 0L119.83 -31.79C119.83 -36.81 118.39 -40.4 115.53 -42.58ZM105.05 -9.22C104.09 -8.63 102.33 -8.33 99.77 -8.33L91.89 -8.33L91.89 -15.85C91.89 -17.58 92.35 -18.76 93.27 -19.39C94.2 -20.02 95.97 -20.33 98.6 -20.33L106.48 -20.33L106.48 -12.63C106.48 -10.96 106.01 -9.82 105.05 -9.22Z M131.29 0ZM145.35 -45.14L132.01 -43.35L132.01 0L145.35 0ZM132.86 -52.12C133.9 -51.11 135.89 -50.6 138.81 -50.6C141.68 -50.6 143.62 -51.11 144.63 -52.12C145.65 -53.14 146.16 -55.08 146.16 -57.94C146.16 -60.87 145.63 -62.85 144.59 -63.9C143.54 -64.94 141.62 -65.47 138.81 -65.47C135.89 -65.47 133.9 -64.94 132.86 -63.9C131.81 -62.85 131.29 -60.87 131.29 -57.94C131.29 -55.08 131.81 -53.14 132.86 -52.12Z"></path></g></g></g></svg>